<mxfile host="app.diagrams.net" agent="Mozilla/5.0 (Windows NT 10.0; Win64; x64) AppleWebKit/537.36 (KHTML, like Gecko) Chrome/134.0.0.0 Safari/537.36" version="26.1.0">
  <diagram name="Page-1" id="GlSFjDTQWdqTZj4qEnCr">
    <mxGraphModel dx="1062" dy="565" grid="1" gridSize="10" guides="1" tooltips="1" connect="1" arrows="1" fold="1" page="1" pageScale="1" pageWidth="850" pageHeight="1100" math="0" shadow="0">
      <root>
        <mxCell id="0" />
        <mxCell id="1" parent="0" />
        <mxCell id="PoqzA-sE4-dLrWrjD_Pj-5" value="" style="edgeStyle=orthogonalEdgeStyle;rounded=0;orthogonalLoop=1;jettySize=auto;html=1;" parent="1" source="PoqzA-sE4-dLrWrjD_Pj-1" target="PoqzA-sE4-dLrWrjD_Pj-4" edge="1">
          <mxGeometry relative="1" as="geometry" />
        </mxCell>
        <mxCell id="PoqzA-sE4-dLrWrjD_Pj-1" value="START" style="ellipse;whiteSpace=wrap;html=1;" parent="1" vertex="1">
          <mxGeometry x="360" y="250" width="120" height="80" as="geometry" />
        </mxCell>
        <mxCell id="PoqzA-sE4-dLrWrjD_Pj-7" value="" style="edgeStyle=orthogonalEdgeStyle;rounded=0;orthogonalLoop=1;jettySize=auto;html=1;" parent="1" source="PoqzA-sE4-dLrWrjD_Pj-4" target="PoqzA-sE4-dLrWrjD_Pj-6" edge="1">
          <mxGeometry relative="1" as="geometry" />
        </mxCell>
        <mxCell id="PoqzA-sE4-dLrWrjD_Pj-4" value="INPUT NUMBER" style="shape=parallelogram;perimeter=parallelogramPerimeter;whiteSpace=wrap;html=1;fixedSize=1;" parent="1" vertex="1">
          <mxGeometry x="360" y="420" width="120" height="60" as="geometry" />
        </mxCell>
        <mxCell id="jw4mHjGPhwt3viZWfOLK-4" value="" style="edgeStyle=orthogonalEdgeStyle;rounded=0;orthogonalLoop=1;jettySize=auto;html=1;entryX=0.5;entryY=0.5;entryDx=0;entryDy=0;entryPerimeter=0;" edge="1" parent="1" source="PoqzA-sE4-dLrWrjD_Pj-6" target="jw4mHjGPhwt3viZWfOLK-5">
          <mxGeometry relative="1" as="geometry">
            <mxPoint x="740" y="595" as="targetPoint" />
          </mxGeometry>
        </mxCell>
        <mxCell id="jw4mHjGPhwt3viZWfOLK-10" value="" style="edgeStyle=orthogonalEdgeStyle;rounded=0;orthogonalLoop=1;jettySize=auto;html=1;entryX=0.417;entryY=0.5;entryDx=0;entryDy=0;entryPerimeter=0;" edge="1" parent="1" source="PoqzA-sE4-dLrWrjD_Pj-6" target="jw4mHjGPhwt3viZWfOLK-11">
          <mxGeometry relative="1" as="geometry">
            <mxPoint x="70" y="595" as="targetPoint" />
          </mxGeometry>
        </mxCell>
        <mxCell id="PoqzA-sE4-dLrWrjD_Pj-6" value="&lt;font style=&quot;font-size: 9px;&quot;&gt;CHECK IF THE REMAINDER OF NUMBER /2 IS EQUAL TO 0&lt;/font&gt;" style="rhombus;whiteSpace=wrap;html=1;" parent="1" vertex="1">
          <mxGeometry x="280" y="540" width="280" height="110" as="geometry" />
        </mxCell>
        <mxCell id="jw4mHjGPhwt3viZWfOLK-5" value="Number is ODD" style="shape=parallelogram;perimeter=parallelogramPerimeter;whiteSpace=wrap;html=1;fixedSize=1;" vertex="1" parent="1">
          <mxGeometry x="660" y="740" width="120" height="60" as="geometry" />
        </mxCell>
        <mxCell id="jw4mHjGPhwt3viZWfOLK-11" value="Number is EVEN" style="shape=parallelogram;perimeter=parallelogramPerimeter;whiteSpace=wrap;html=1;fixedSize=1;" vertex="1" parent="1">
          <mxGeometry x="20" y="740" width="120" height="60" as="geometry" />
        </mxCell>
        <mxCell id="jw4mHjGPhwt3viZWfOLK-28" value="" style="strokeWidth=2;html=1;shape=mxgraph.flowchart.annotation_2;align=left;labelPosition=right;pointerEvents=1;direction=north;" vertex="1" parent="1">
          <mxGeometry x="80" y="800" width="640" height="110" as="geometry" />
        </mxCell>
        <mxCell id="jw4mHjGPhwt3viZWfOLK-29" value="END" style="ellipse;whiteSpace=wrap;html=1;" vertex="1" parent="1">
          <mxGeometry x="340" y="900" width="120" height="80" as="geometry" />
        </mxCell>
      </root>
    </mxGraphModel>
  </diagram>
</mxfile>
